<?xml version="1.0" encoding="UTF-8"?>
<svg id="woofer_Logo" data-name="woofer Logo" xmlns="http://www.w3.org/2000/svg" viewBox="0 0 379.58 473.79">
  <defs>
    <style>
      .cls-1 {
        fill: #8b5e3c;
      }

      .cls-1, .cls-2 {
        stroke: #231f20;
        stroke-miterlimit: 10;
        stroke-width: 10px;
      }

      .cls-2 {
        fill: none;
      }

      .cls-3 {
        fill: #9a1f21;
      }

      .cls-4 {
        fill: #231f20;
      }
    </style>
  </defs>
  <path id="Body" class="cls-1" d="m98.1,28.55c-8.93-.63-15.73-8.07-34.7,8.88S4.45,100.03,5.01,239.74c0,0,0,16.08,18.3,13.31,16.63,1.11,19.41-12.2,19.41-12.2,0,0,12.77-39.85,13.52-73.66,5.76-44.77,13.19-43.66,14.12-51.83-3.72,17.09-3.16,47.37,2.97,70.22,3.15,7.31,9.85,35.3,11.52,37.9-1.11,5.39-5.39,22.85-6.13,27.68-7.8,4.09-58.15,25.45-62.79,29.17-4.11,4.21-10.03,10.59-8.36,24.34,1.14,9.83,0,9.29,4.27,9.85-2.6,17.28,0,30.65,13.38,42.91,15.79,10.77,36.04,7.43,44.77,10.77.74,19.69,2.6,38.64,20.25,47.74s44.59,15.05,44.59,15.05c0,0,7.43,24.52,33.81,31.21s48.52,21.36,100.54-38.35c13.53-1.16,26.1-9.12,33.06-16.82,4.07-15.42,2.82-18.56-3.46-35.5,4.27,12.2,37.7,25.84,63.42-12.84,9.57-5.78,17.35-16.15,8.57-33.3-11.17-16.95-73.57-81.55-77.36-86.93s14.05-3.91,5.51-124.26c17.67,17.08,14.64,99.22,24.72,115.85,7.56,13.1,16.13,9.57,19.15,10.08s14.61-3.02,16.13-9.07c4.41-5.21,13.3-49.25-10.66-120.38-6.16-18.3-15.58-38.13-28.14-58.52-12.49-17.45-39.29-39.75-56.42-45.81-4.81-1.7-12.62-1.05-19.68,5.5-28.28-16.75-119.88.44-145.9,16.69Z"/>
  <ellipse id="Right_Eye" data-name="Right Eye" class="cls-4" cx="233.13" cy="154.39" rx="19.64" ry="21.45"/>
  <ellipse id="Left_Eye" data-name="Left Eye" class="cls-4" cx="157.71" cy="158.24" rx="19.64" ry="21.45"/>
  <path id="Nose" class="cls-3" d="m195.71,201.6s30.5-3.49,26.44,25.28c-14.38,26.15-36.51,26.92-43.15,25.45s-20.63-23.48-16.01-40.9c2.56-16.57,22.14-22.2,32.72-9.82Z"/>
  <path id="Left_Jaw" data-name="Left Jaw" class="cls-2" d="m84.83,223.48s14.19,63.43,40.81,74.16c12.11,3.45,18.44.62,28.3.22"/>
  <line id="Left_Leg_Line" data-name="Left Leg Line" class="cls-2" x1="78.7" y1="251.16" x2="69.97" y2="368.2"/>
  <path id="Right_Leg_line" data-name="Right Leg line" class="cls-2" d="m300.14,374.21s-27.19-41.52-5.37-133.07c0,0-6.43,44.61-46.08,42.3s-8.14.09-8.14.09"/>
  <line id="Left_Leg_Middle_Line" data-name="Left Leg Middle Line" class="cls-2" x1="153.93" y1="297.86" x2="145.27" y2="449"/>
  <path id="Heart" class="cls-3" d="m266.87,422.84s33.15-47.86,21.83-74.07-32.62-54.62-41.4-68.01c-7.38-12.5-35.24-29.16-83.97.64-27.91,20.38-11.92,56.11-4.34,64.72s13.11,16.39,4.1,26.43c-30.32,20.9-24.99,42.67-24.99,59.25,0,0,5.98,21.57,31.09,27.74,23.11,4.8,44.15,24.3,97.68-36.7Z"/>
</svg>